<svg width="18" height="14" viewBox="0 0 18 14" fill="none" xmlns="http://www.w3.org/2000/svg">
<path d="M5.54883 10.3561L7.84859 11.5814C8.14533 11.7856 8.813 11.8877 9.25812 11.8877H12.0772C12.9674 11.8877 13.9318 11.4282 14.1544 10.8156L15.9348 7.08865C16.3058 6.37389 15.6381 5.76124 14.5253 5.76124H11.5579C11.1128 5.76124 10.7418 5.50597 10.816 5.1486L11.1869 3.51487C11.3353 3.05539 10.8902 2.54485 10.2225 2.39168C9.62905 2.23852 8.88719 2.44274 8.59044 2.74906L5.54883 5.86335" stroke="#667085" stroke-miterlimit="10"/>
<path d="M1.76562 10.3559V5.35259C1.76562 4.63784 2.21074 4.38257 3.24934 4.38257H3.9912C5.0298 4.38257 5.47491 4.63784 5.47491 5.35259V10.3559C5.47491 11.0706 5.0298 11.3259 3.9912 11.3259H3.24934C2.21074 11.3259 1.76562 11.0706 1.76562 10.3559Z" stroke="#667085" stroke-linecap="round" stroke-linejoin="round"/>
</svg>
