<svg width="19" height="20" viewBox="0 0 19 20" fill="none" xmlns="http://www.w3.org/2000/svg">
<path d="M12.4684 9.09641V5.61729C12.4684 4.84835 12.1556 4.11091 11.5989 3.56719C11.0421 3.02348 10.287 2.71802 9.49965 2.71802C8.71229 2.71802 7.95718 3.02348 7.40043 3.56719C6.84368 4.11091 6.5309 4.84835 6.5309 5.61729V9.09641M15.5211 7.55554L16.5209 16.8332C16.5764 17.3473 16.1647 17.7942 15.6351 17.7942H3.36424C3.23932 17.7943 3.11577 17.7688 3.00161 17.7193C2.88746 17.6697 2.78525 17.5973 2.70163 17.5067C2.61801 17.416 2.55485 17.3092 2.51625 17.1932C2.47764 17.0772 2.46447 16.9545 2.47757 16.8332L3.47824 7.55554C3.50132 7.34182 3.60461 7.144 3.76818 7.00024C3.93176 6.85648 4.14405 6.77696 4.36411 6.77699H14.6352C15.0912 6.77699 15.4736 7.11331 15.5211 7.55554ZM6.82778 9.09641C6.82778 9.1733 6.7965 9.24705 6.74082 9.30142C6.68515 9.35579 6.60964 9.38634 6.5309 9.38634C6.45217 9.38634 6.37666 9.35579 6.32098 9.30142C6.26531 9.24705 6.23403 9.1733 6.23403 9.09641C6.23403 9.01952 6.26531 8.94577 6.32098 8.8914C6.37666 8.83703 6.45217 8.80648 6.5309 8.80648C6.60964 8.80648 6.68515 8.83703 6.74082 8.8914C6.7965 8.94577 6.82778 9.01952 6.82778 9.09641ZM12.7653 9.09641C12.7653 9.1733 12.734 9.24705 12.6783 9.30142C12.6227 9.35579 12.5471 9.38634 12.4684 9.38634C12.3897 9.38634 12.3142 9.35579 12.2585 9.30142C12.2028 9.24705 12.1715 9.1733 12.1715 9.09641C12.1715 9.01952 12.2028 8.94577 12.2585 8.8914C12.3142 8.83703 12.3897 8.80648 12.4684 8.80648C12.5471 8.80648 12.6227 8.83703 12.6783 8.8914C12.734 8.94577 12.7653 9.01952 12.7653 9.09641Z" stroke="#FB6F92" stroke-width="1.5" stroke-linecap="round" stroke-linejoin="round"/>
</svg>
