<svg width="19" height="21" viewBox="0 0 19 21" fill="none" xmlns="http://www.w3.org/2000/svg">
<path d="M6.53126 16.129C6.53126 16.4512 6.40615 16.7602 6.18345 16.9881C5.96075 17.2159 5.65871 17.3439 5.34376 17.3439C5.02882 17.3439 4.72677 17.2159 4.50408 16.9881C4.28138 16.7602 4.15626 16.4512 4.15626 16.129M6.53126 16.129C6.53126 15.8068 6.40615 15.4977 6.18345 15.2699C5.96075 15.0421 5.65871 14.9141 5.34376 14.9141C5.02882 14.9141 4.72677 15.0421 4.50408 15.2699C4.28138 15.4977 4.15626 15.8068 4.15626 16.129M6.53126 16.129H11.2813M4.15626 16.129H2.67189C2.43568 16.129 2.20915 16.033 2.04212 15.8621C1.8751 15.6912 1.78126 15.4595 1.78126 15.2178V12.4842M11.2813 16.129H13.0625M11.2813 16.129V12.4842M1.78126 12.4842V6.30019C1.78001 6.0784 1.85921 5.86402 2.00356 5.69854C2.1479 5.53305 2.34711 5.42824 2.56264 5.40438C5.2013 5.12416 7.86123 5.12416 10.4999 5.40438C10.9472 5.45136 11.2813 5.84014 11.2813 6.30019V7.07613M1.78126 12.4842H11.2813M15.4375 16.129C15.4375 16.4512 15.3124 16.7602 15.0897 16.9881C14.867 17.2159 14.565 17.3439 14.25 17.3439C13.9351 17.3439 13.633 17.2159 13.4103 16.9881C13.1876 16.7602 13.0625 16.4512 13.0625 16.129M15.4375 16.129C15.4375 15.8068 15.3124 15.4977 15.0897 15.2699C14.867 15.0421 14.565 14.9141 14.25 14.9141C13.9351 14.9141 13.633 15.0421 13.4103 15.2699C13.1876 15.4977 13.0625 15.8068 13.0625 16.129M15.4375 16.129H16.3281C16.8198 16.129 17.2219 15.7208 17.1911 15.2186C17.032 12.5438 16.1515 9.9665 14.6474 7.77269C14.5042 7.56719 14.3171 7.39769 14.1004 7.27702C13.8837 7.15635 13.6431 7.08765 13.3966 7.07613H11.2813M11.2813 7.07613V12.4842" stroke="#FB6F92" stroke-width="1.5" stroke-linecap="round" stroke-linejoin="round"/>
</svg>
