<svg width="96" height="17" viewBox="0 0 96 17" fill="none" xmlns="http://www.w3.org/2000/svg">
<g clip-path="url(#clip0_54_1446)">
<path d="M3.61163 15.6701C3.22563 15.8681 2.78763 15.5211 2.86563 15.0781L3.69563 10.3481L0.17263 6.99206C-0.15637 6.67806 0.01463 6.10406 0.45563 6.04206L5.35363 5.34606L7.53763 1.01906C7.73463 0.629063 8.26763 0.629063 8.46463 1.01906L10.6486 5.34606L15.5466 6.04206C15.9876 6.10406 16.1586 6.67806 15.8286 6.99206L12.3066 10.3481L13.1366 15.0781C13.2146 15.5211 12.7766 15.8681 12.3906 15.6701L7.99963 13.4141L3.61063 15.6701H3.61163Z" fill="#E1A829"/>
</g>
<g clip-path="url(#clip1_54_1446)">
<path d="M23.6116 15.6701C23.2256 15.8681 22.7876 15.5211 22.8656 15.0781L23.6956 10.3481L20.1726 6.99206C19.8436 6.67806 20.0146 6.10406 20.4556 6.04206L25.3536 5.34606L27.5376 1.01906C27.7346 0.629063 28.2676 0.629063 28.4646 1.01906L30.6486 5.34606L35.5466 6.04206C35.9876 6.10406 36.1586 6.67806 35.8286 6.99206L32.3066 10.3481L33.1366 15.0781C33.2146 15.5211 32.7766 15.8681 32.3906 15.6701L27.9996 13.4141L23.6106 15.6701H23.6116Z" fill="#E1A829"/>
</g>
<g clip-path="url(#clip2_54_1446)">
<path d="M43.6116 15.6701C43.2256 15.8681 42.7876 15.5211 42.8656 15.0781L43.6956 10.3481L40.1726 6.99206C39.8436 6.67806 40.0146 6.10406 40.4556 6.04206L45.3536 5.34606L47.5376 1.01906C47.7346 0.629063 48.2676 0.629063 48.4646 1.01906L50.6486 5.34606L55.5466 6.04206C55.9876 6.10406 56.1586 6.67806 55.8286 6.99206L52.3066 10.3481L53.1366 15.0781C53.2146 15.5211 52.7766 15.8681 52.3906 15.6701L47.9996 13.4141L43.6106 15.6701H43.6116Z" fill="#E1A829"/>
</g>
<g clip-path="url(#clip3_54_1446)">
<path d="M65.354 5.34605L67.538 1.01905C67.5799 0.932004 67.6455 0.858484 67.7272 0.80686C67.8088 0.755237 67.9034 0.727584 68 0.727051C68.183 0.727051 68.366 0.824051 68.465 1.01905L70.649 5.34605L75.547 6.04205C75.6691 6.06124 75.7808 6.12196 75.8633 6.21396C75.9459 6.30596 75.9941 6.4236 76 6.54705C76.007 6.62924 75.9953 6.71194 75.9659 6.78899C75.9364 6.86604 75.89 6.93545 75.83 6.99205L72.307 10.3481L73.137 15.0781C73.215 15.5211 72.777 15.8681 72.391 15.6701L68 13.4141L63.611 15.6701C63.5651 15.6939 63.5159 15.7107 63.465 15.7201C63.123 15.7801 62.797 15.4661 62.865 15.0781L63.695 10.3481L60.173 6.99205C60.1182 6.94025 60.0747 6.87774 60.0451 6.80842C60.0155 6.73909 60.0005 6.66443 60.001 6.58905C60.001 6.48249 60.0304 6.378 60.086 6.28705C60.1254 6.22112 60.1791 6.16488 60.2431 6.12247C60.3072 6.08007 60.3799 6.05259 60.456 6.04205L65.354 5.34605ZM68 12.2541C68.0807 12.2537 68.1603 12.2729 68.232 12.3101L71.918 14.2041L71.224 10.2471C71.2076 10.156 71.2138 10.0624 71.2421 9.97436C71.2703 9.88631 71.3197 9.80654 71.386 9.74205L74.293 6.97205L70.241 6.39605C70.1571 6.38338 70.0775 6.35056 70.0091 6.3004C69.9406 6.25024 69.8853 6.18424 69.848 6.10805L68.001 2.45005L68 2.45305V12.2531V12.2541Z" fill="#E1A829"/>
</g>
<g clip-path="url(#clip4_54_1446)">
<path d="M82.8656 15.0771C82.7876 15.5211 83.2256 15.8681 83.6116 15.6701L88.0016 13.4141L92.3906 15.6701C92.7766 15.8681 93.2146 15.5211 93.1366 15.0781L92.3066 10.3481L95.8286 6.9921C96.1586 6.6781 95.9886 6.1041 95.5466 6.0421L90.6486 5.3461L88.4646 1.0191C88.423 0.931385 88.3574 0.857279 88.2753 0.805388C88.1933 0.753498 88.0982 0.725952 88.0011 0.725952C87.9041 0.725952 87.809 0.753498 87.7269 0.805388C87.6449 0.857279 87.5792 0.931385 87.5376 1.0191L85.3536 5.3471L80.4556 6.0431C80.0146 6.1051 79.8436 6.6791 80.1726 6.9931L83.6956 10.3491L82.8656 15.0791V15.0771ZM87.7706 12.3101L84.0846 14.2041L84.7786 10.2471C84.7949 10.156 84.7885 10.0623 84.7601 9.97427C84.7317 9.88622 84.6821 9.80649 84.6156 9.7421L81.7096 6.9721L85.7616 6.3961C85.8455 6.38343 85.9251 6.35061 85.9936 6.30045C86.062 6.25029 86.1173 6.18429 86.1546 6.1081L87.9996 2.4501L89.8466 6.1081C89.884 6.18429 89.9393 6.25029 90.0077 6.30045C90.0761 6.35061 90.1557 6.38343 90.2396 6.3961L94.2916 6.9711L91.3856 9.7411C91.319 9.80559 91.2693 9.88548 91.2409 9.97373C91.2125 10.062 91.2062 10.1559 91.2226 10.2471L91.9166 14.2041L88.2306 12.3101C88.1594 12.2733 88.0803 12.2542 88.0001 12.2542C87.9199 12.2542 87.8409 12.2733 87.7696 12.3101H87.7706Z" fill="#E1A829"/>
</g>
<defs>
<clipPath id="clip0_54_1446">
<rect width="16" height="16" fill="white" transform="translate(0 0.227051)"/>
</clipPath>
<clipPath id="clip1_54_1446">
<rect width="16" height="16" fill="white" transform="translate(20 0.227051)"/>
</clipPath>
<clipPath id="clip2_54_1446">
<rect width="16" height="16" fill="white" transform="translate(40 0.227051)"/>
</clipPath>
<clipPath id="clip3_54_1446">
<rect width="16" height="16" fill="white" transform="translate(60 0.227051)"/>
</clipPath>
<clipPath id="clip4_54_1446">
<rect width="16" height="16" fill="white" transform="translate(80 0.227051)"/>
</clipPath>
</defs>
</svg>
