<svg width="118" height="13" viewBox="0 0 118 13" fill="none" xmlns="http://www.w3.org/2000/svg">
<path d="M6.67983 0.484364L4.85323 3.76703L0.766458 4.29513C0.0335802 4.38934 -0.26013 5.19017 0.271346 5.64885L3.22803 8.20259L2.52872 11.81C2.40285 12.4621 3.17768 12.9505 3.82664 12.6456L7.48264 10.9423L11.1386 12.6456C11.7876 12.9481 12.5624 12.4621 12.4366 11.81L11.7373 8.20259L14.6939 5.64885C15.2254 5.19017 14.9317 4.38934 14.1988 4.29513L10.1121 3.76703L8.28545 0.484364C7.95817 -0.100764 7.00991 -0.108202 6.67983 0.484364Z" fill="#E59819"/>
<path d="M32.3341 0.484364L30.5075 3.76703L26.4208 4.29513C25.6879 4.38934 25.3942 5.19017 25.9256 5.64885L28.8823 8.20259L28.183 11.81C28.0571 12.4621 28.832 12.9505 29.4809 12.6456L33.1369 10.9423L36.7929 12.6456C37.4419 12.9481 38.2167 12.4621 38.0909 11.81L37.3915 8.20259L40.3482 5.64885C40.8797 5.19017 40.586 4.38934 39.8531 4.29513L35.7663 3.76703L33.9397 0.484364C33.6125 -0.100764 32.6642 -0.108202 32.3341 0.484364Z" fill="#E59819"/>
<path d="M57.9904 0.484364L56.1638 3.76703L52.077 4.29513C51.3441 4.38934 51.0504 5.19017 51.5819 5.64885L54.5386 8.20259L53.8393 11.81C53.7134 12.4621 54.4882 12.9505 55.1372 12.6456L58.7932 10.9423L62.4492 12.6456C63.0981 12.9481 63.873 12.4621 63.7471 11.81L63.0478 8.20259L66.0045 5.64885C66.536 5.19017 66.2422 4.38934 65.5094 4.29513L61.4226 3.76703L59.596 0.484364C59.2687 -0.100764 58.3205 -0.108202 57.9904 0.484364Z" fill="#E59819"/>
<path d="M83.6447 0.484364L81.8181 3.76703L77.7313 4.29513C76.9984 4.38934 76.7047 5.19017 77.2362 5.64885L80.1929 8.20259L79.4936 11.81C79.3677 12.4621 80.1425 12.9505 80.7915 12.6456L84.4475 10.9423L88.1035 12.6456C88.7524 12.9481 89.5273 12.4621 89.4014 11.81L88.7021 8.20259L91.6588 5.64885C92.1903 5.19017 91.8965 4.38934 91.1637 4.29513L87.0769 3.76703L85.2503 0.484364C84.923 -0.100764 83.9748 -0.108202 83.6447 0.484364Z" fill="#E59819"/>
<path d="M109.299 0.484364L107.472 3.76703L103.386 4.29513C102.653 4.38934 102.359 5.19017 102.89 5.64885L105.847 8.20259L105.148 11.81C105.022 12.4621 105.797 12.9505 106.446 12.6456L110.102 10.9423L113.758 12.6456C114.407 12.9481 115.182 12.4621 115.056 11.81L114.356 8.20259L117.313 5.64885C117.845 5.19017 117.551 4.38934 116.818 4.29513L112.731 3.76703L110.905 0.484364C110.577 -0.100764 109.629 -0.108202 109.299 0.484364Z" fill="#E59819"/>
</svg>
