<svg width="85" height="10" viewBox="0 0 85 10" fill="none" xmlns="http://www.w3.org/2000/svg">
<path d="M5.4659 1.25003L4.16139 3.59479L1.2427 3.972C0.719295 4.0393 0.509533 4.61132 0.889102 4.93895L3.0007 6.76304L2.50127 9.3398C2.41137 9.80556 2.96474 10.1544 3.42822 9.93662L6.03925 8.71996L8.65029 9.93662C9.11376 10.1527 9.66713 9.80556 9.57724 9.3398L9.0778 6.76304L11.1894 4.93895C11.569 4.61132 11.3592 4.0393 10.8358 3.972L7.91712 3.59479L6.6126 1.25003C6.37887 0.832079 5.70164 0.826766 5.4659 1.25003Z" fill="#E59819"/>
<path d="M23.6348 1.25003L22.3303 3.59479L19.4116 3.972C18.8882 4.0393 18.6785 4.61132 19.058 4.93895L21.1696 6.76304L20.6702 9.3398C20.5803 9.80556 21.1337 10.1544 21.5972 9.93662L24.2082 8.71996L26.8192 9.93662C27.2827 10.1527 27.8361 9.80556 27.7462 9.3398L27.2467 6.76304L29.3584 4.93895C29.7379 4.61132 29.5282 4.0393 29.0048 3.972L26.0861 3.59479L24.7815 1.25003C24.5478 0.832079 23.8706 0.826766 23.6348 1.25003Z" fill="#E59819"/>
<path d="M41.8028 1.25003L40.4983 3.59479L37.5796 3.972C37.0562 4.0393 36.8464 4.61132 37.226 4.93895L39.3376 6.76304L38.8382 9.3398C38.7483 9.80556 39.3017 10.1544 39.7651 9.93662L42.3762 8.71996L44.9872 9.93662C45.4507 10.1527 46.004 9.80556 45.9142 9.3398L45.4147 6.76304L47.5263 4.93895C47.9059 4.61132 47.6961 4.0393 47.1727 3.972L44.254 3.59479L42.9495 1.25003C42.7158 0.832079 42.0386 0.826766 41.8028 1.25003Z" fill="#E59819"/>
<path d="M59.9747 1.25003L58.6702 3.59479L55.7515 3.972C55.2281 4.0393 55.0183 4.61132 55.3979 4.93895L57.5095 6.76304L57.0101 9.3398C56.9202 9.80556 57.4735 10.1544 57.937 9.93662L60.548 8.71996L63.1591 9.93662C63.6226 10.1527 64.1759 9.80556 64.086 9.3398L63.5866 6.76304L65.6982 4.93895C66.0778 4.61132 65.868 4.0393 65.3446 3.972L62.4259 3.59479L61.1214 1.25003C60.8877 0.832079 60.2104 0.826766 59.9747 1.25003Z" fill="#E59819"/>
<path d="M78.1436 1.25003L76.8391 3.59479L73.9204 3.972C73.397 4.0393 73.1873 4.61132 73.5668 4.93895L75.6784 6.76304L75.179 9.3398C75.0891 9.80556 75.6425 10.1544 76.106 9.93662L78.717 8.71996L81.328 9.93662C81.7915 10.1527 82.3449 9.80556 82.255 9.3398L81.7555 6.76304L83.8671 4.93895C84.2467 4.61132 84.0369 4.0393 83.5135 3.972L80.5949 3.59479L79.2903 1.25003C79.0566 0.832079 78.3794 0.826766 78.1436 1.25003Z" fill="#E59819"/>
</svg>
