<svg width="85" height="10" viewBox="0 0 85 10" fill="none" xmlns="http://www.w3.org/2000/svg">
<path d="M5.4659 0.702419L4.16139 3.04718L1.2427 3.42439C0.719295 3.49169 0.509533 4.06371 0.889102 4.39134L3.0007 6.21544L2.50127 8.79219C2.41137 9.25796 2.96474 9.60684 3.42822 9.38901L6.03925 8.17235L8.65029 9.38901C9.11376 9.60507 9.66713 9.25796 9.57724 8.79219L9.0778 6.21544L11.1894 4.39134C11.569 4.06371 11.3592 3.49169 10.8358 3.42439L7.91712 3.04718L6.6126 0.702419C6.37887 0.284471 5.70164 0.279158 5.4659 0.702419Z" fill="#E59819"/>
<path d="M23.6348 0.702419L22.3303 3.04718L19.4116 3.42439C18.8882 3.49169 18.6785 4.06371 19.058 4.39134L21.1696 6.21544L20.6702 8.79219C20.5803 9.25796 21.1337 9.60684 21.5972 9.38901L24.2082 8.17235L26.8192 9.38901C27.2827 9.60507 27.8361 9.25796 27.7462 8.79219L27.2467 6.21544L29.3584 4.39134C29.7379 4.06371 29.5282 3.49169 29.0048 3.42439L26.0861 3.04718L24.7815 0.702419C24.5478 0.284471 23.8706 0.279158 23.6348 0.702419Z" fill="#E59819"/>
<path d="M41.8028 0.702419L40.4983 3.04718L37.5796 3.42439C37.0562 3.49169 36.8464 4.06371 37.226 4.39134L39.3376 6.21544L38.8382 8.79219C38.7483 9.25796 39.3017 9.60684 39.7651 9.38901L42.3762 8.17235L44.9872 9.38901C45.4507 9.60507 46.004 9.25796 45.9142 8.79219L45.4147 6.21544L47.5263 4.39134C47.9059 4.06371 47.6961 3.49169 47.1727 3.42439L44.254 3.04718L42.9495 0.702419C42.7158 0.284471 42.0386 0.279158 41.8028 0.702419Z" fill="#E59819"/>
<path d="M59.9747 0.702419L58.6702 3.04718L55.7515 3.42439C55.2281 3.49169 55.0183 4.06371 55.3979 4.39134L57.5095 6.21544L57.0101 8.79219C56.9202 9.25796 57.4735 9.60684 57.937 9.38901L60.548 8.17235L63.1591 9.38901C63.6226 9.60507 64.1759 9.25796 64.086 8.79219L63.5866 6.21544L65.6982 4.39134C66.0778 4.06371 65.868 3.49169 65.3446 3.42439L62.4259 3.04718L61.1214 0.702419C60.8877 0.284471 60.2104 0.279158 59.9747 0.702419Z" fill="#E59819"/>
<path d="M78.1436 0.702419L76.8391 3.04718L73.9204 3.42439C73.397 3.49169 73.1873 4.06371 73.5668 4.39134L75.6784 6.21544L75.179 8.79219C75.0891 9.25796 75.6425 9.60684 76.106 9.38901L78.717 8.17235L81.328 9.38901C81.7915 9.60507 82.3449 9.25796 82.255 8.79219L81.7555 6.21544L83.8671 4.39134C84.2467 4.06371 84.0369 3.49169 83.5135 3.42439L80.5949 3.04718L79.2903 0.702419C79.0566 0.284471 78.3794 0.279158 78.1436 0.702419Z" fill="#E59819"/>
</svg>
