<svg width="85" height="10" viewBox="0 0 85 10" fill="none" xmlns="http://www.w3.org/2000/svg">
<path d="M5.4659 0.428372L4.16139 2.77313L1.2427 3.15035C0.719295 3.21764 0.509533 3.78967 0.889102 4.11729L3.0007 5.94139L2.50127 8.51814C2.41137 8.98391 2.96474 9.33279 3.42822 9.11496L6.03925 7.89831L8.65029 9.11496C9.11376 9.33102 9.66713 8.98391 9.57724 8.51814L9.0778 5.94139L11.1894 4.11729C11.569 3.78967 11.3592 3.21764 10.8358 3.15035L7.91712 2.77313L6.6126 0.428372C6.37887 0.0104235 5.70164 0.00511062 5.4659 0.428372Z" fill="#E59819"/>
<path d="M23.6348 0.428372L22.3303 2.77313L19.4116 3.15035C18.8882 3.21764 18.6785 3.78967 19.058 4.11729L21.1696 5.94139L20.6702 8.51814C20.5803 8.98391 21.1337 9.33279 21.5972 9.11496L24.2082 7.89831L26.8192 9.11496C27.2827 9.33102 27.8361 8.98391 27.7462 8.51814L27.2467 5.94139L29.3584 4.11729C29.7379 3.78967 29.5282 3.21764 29.0048 3.15035L26.0861 2.77313L24.7815 0.428372C24.5478 0.0104235 23.8706 0.00511062 23.6348 0.428372Z" fill="#E59819"/>
<path d="M41.8028 0.428372L40.4983 2.77313L37.5796 3.15035C37.0562 3.21764 36.8464 3.78967 37.226 4.11729L39.3376 5.94139L38.8382 8.51814C38.7483 8.98391 39.3017 9.33279 39.7651 9.11496L42.3762 7.89831L44.9872 9.11496C45.4507 9.33102 46.004 8.98391 45.9142 8.51814L45.4147 5.94139L47.5263 4.11729C47.9059 3.78967 47.6961 3.21764 47.1727 3.15035L44.254 2.77313L42.9495 0.428372C42.7158 0.0104235 42.0386 0.00511062 41.8028 0.428372Z" fill="#E59819"/>
<path d="M59.9747 0.428372L58.6702 2.77313L55.7515 3.15035C55.2281 3.21764 55.0183 3.78967 55.3979 4.11729L57.5095 5.94139L57.0101 8.51814C56.9202 8.98391 57.4735 9.33279 57.937 9.11496L60.548 7.89831L63.1591 9.11496C63.6226 9.33102 64.1759 8.98391 64.086 8.51814L63.5866 5.94139L65.6982 4.11729C66.0778 3.78967 65.868 3.21764 65.3446 3.15035L62.4259 2.77313L61.1214 0.428372C60.8877 0.0104235 60.2104 0.00511062 59.9747 0.428372Z" fill="#E59819"/>
<path d="M78.1436 0.428372L76.8391 2.77313L73.9204 3.15035C73.397 3.21764 73.1873 3.78967 73.5668 4.11729L75.6784 5.94139L75.179 8.51814C75.0891 8.98391 75.6425 9.33279 76.106 9.11496L78.717 7.89831L81.328 9.11496C81.7915 9.33102 82.3449 8.98391 82.255 8.51814L81.7555 5.94139L83.8671 4.11729C84.2467 3.78967 84.0369 3.21764 83.5135 3.15035L80.5949 2.77313L79.2903 0.428372C79.0566 0.0104235 78.3794 0.00511062 78.1436 0.428372Z" fill="#E59819"/>
</svg>
