<svg width="85" height="10" viewBox="0 0 85 10" fill="none" xmlns="http://www.w3.org/2000/svg">
<path d="M5.4659 1.15432L4.16139 3.49908L1.2427 3.8763C0.719295 3.9436 0.509533 4.51562 0.889102 4.84325L3.0007 6.66734L2.50127 9.2441C2.41137 9.70986 2.96474 10.0587 3.42822 9.84091L6.03925 8.62426L8.65029 9.84091C9.11376 10.057 9.66713 9.70986 9.57724 9.2441L9.0778 6.66734L11.1894 4.84325C11.569 4.51562 11.3592 3.9436 10.8358 3.8763L7.91712 3.49908L6.6126 1.15432C6.37887 0.736376 5.70164 0.731063 5.4659 1.15432Z" fill="#E59819"/>
<path d="M23.6348 1.15432L22.3303 3.49908L19.4116 3.8763C18.8882 3.9436 18.6785 4.51562 19.058 4.84325L21.1696 6.66734L20.6702 9.2441C20.5803 9.70986 21.1337 10.0587 21.5972 9.84091L24.2082 8.62426L26.8192 9.84091C27.2827 10.057 27.8361 9.70986 27.7462 9.2441L27.2467 6.66734L29.3584 4.84325C29.7379 4.51562 29.5282 3.9436 29.0048 3.8763L26.0861 3.49908L24.7815 1.15432C24.5478 0.736376 23.8706 0.731063 23.6348 1.15432Z" fill="#E59819"/>
<path d="M41.8028 1.15432L40.4983 3.49908L37.5796 3.8763C37.0562 3.9436 36.8464 4.51562 37.226 4.84325L39.3376 6.66734L38.8382 9.2441C38.7483 9.70986 39.3017 10.0587 39.7651 9.84091L42.3762 8.62426L44.9872 9.84091C45.4507 10.057 46.004 9.70986 45.9142 9.2441L45.4147 6.66734L47.5263 4.84325C47.9059 4.51562 47.6961 3.9436 47.1727 3.8763L44.254 3.49908L42.9495 1.15432C42.7158 0.736376 42.0386 0.731063 41.8028 1.15432Z" fill="#E59819"/>
<path d="M59.9747 1.15432L58.6702 3.49908L55.7515 3.8763C55.2281 3.9436 55.0183 4.51562 55.3979 4.84325L57.5095 6.66734L57.0101 9.2441C56.9202 9.70986 57.4735 10.0587 57.937 9.84091L60.548 8.62426L63.1591 9.84091C63.6226 10.057 64.1759 9.70986 64.086 9.2441L63.5866 6.66734L65.6982 4.84325C66.0778 4.51562 65.868 3.9436 65.3446 3.8763L62.4259 3.49908L61.1214 1.15432C60.8877 0.736376 60.2104 0.731063 59.9747 1.15432Z" fill="#E59819"/>
<path d="M78.1436 1.15432L76.8391 3.49908L73.9204 3.8763C73.397 3.9436 73.1873 4.51562 73.5668 4.84325L75.6784 6.66734L75.179 9.2441C75.0891 9.70986 75.6425 10.0587 76.106 9.84091L78.717 8.62426L81.328 9.84091C81.7915 10.057 82.3449 9.70986 82.255 9.2441L81.7555 6.66734L83.8671 4.84325C84.2467 4.51562 84.0369 3.9436 83.5135 3.8763L80.5949 3.49908L79.2903 1.15432C79.0566 0.736376 78.3794 0.731063 78.1436 1.15432Z" fill="#E59819"/>
</svg>
