<svg width="118" height="14" viewBox="0 0 118 14" fill="none" xmlns="http://www.w3.org/2000/svg">
<path d="M6.67199 1.07714L4.84567 4.3598L0.759507 4.8879C0.0267393 4.98212 -0.266927 5.78295 0.264469 6.24163L3.22071 8.79536L2.52151 12.4028C2.39565 13.0549 3.17037 13.5433 3.81923 13.2384L7.47468 11.535L11.1301 13.2384C11.779 13.5408 12.5537 13.0549 12.4279 12.4028L11.7287 8.79536L14.6849 6.24163C15.2163 5.78295 14.9226 4.98212 14.1899 4.8879L10.1037 4.3598L8.27737 1.07714C7.95014 0.49201 7.00202 0.484572 6.67199 1.07714Z" fill="#E59819"/>
<path d="M32.3234 1.07714L30.497 4.3598L26.4109 4.8879C25.6781 4.98212 25.3844 5.78295 25.9158 6.24163L28.8721 8.79536L28.1729 12.4028C28.047 13.0549 28.8217 13.5433 29.4706 13.2384L33.126 11.535L36.7815 13.2384C37.4304 13.5408 38.2051 13.0549 38.0792 12.4028L37.38 8.79536L40.3363 6.24163C40.8677 5.78295 40.574 4.98212 39.8412 4.8879L35.7551 4.3598L33.9287 1.07714C33.6015 0.49201 32.6534 0.484572 32.3234 1.07714Z" fill="#E59819"/>
<path d="M57.9737 1.07714L56.1474 4.3598L52.0613 4.8879C51.3285 4.98212 51.0348 5.78295 51.5662 6.24163L54.5225 8.79536L53.8233 12.4028C53.6974 13.0549 54.4721 13.5433 55.121 13.2384L58.7764 11.535L62.4319 13.2384C63.0808 13.5408 63.8555 13.0549 63.7296 12.4028L63.0304 8.79536L65.9867 6.24163C66.518 5.78295 66.2244 4.98212 65.4916 4.8879L61.4055 4.3598L59.5791 1.07714C59.2519 0.49201 58.3038 0.484572 57.9737 1.07714Z" fill="#E59819"/>
<path d="M83.6232 1.07714L81.7968 4.3598L77.7107 4.8879C76.9779 4.98212 76.6842 5.78295 77.2156 6.24163L80.1719 8.79536L79.4727 12.4028C79.3468 13.0549 80.1215 13.5433 80.7704 13.2384L84.4259 11.535L88.0813 13.2384C88.7302 13.5408 89.5049 13.0549 89.379 12.4028L88.6798 8.79536L91.6361 6.24163C92.1675 5.78295 91.8738 4.98212 91.141 4.8879L87.0549 4.3598L85.2285 1.07714C84.9013 0.49201 83.9532 0.484572 83.6232 1.07714Z" fill="#E59819"/>
<path d="M109.276 1.07714L107.449 4.3598L103.363 4.8879C102.63 4.98212 102.337 5.78295 102.868 6.24163L105.824 8.79536L105.125 12.4028C104.999 13.0549 105.774 13.5433 106.423 13.2384L110.078 11.535L113.734 13.2384C114.383 13.5408 115.157 13.0549 115.031 12.4028L114.332 8.79536L117.288 6.24163C117.82 5.78295 117.526 4.98212 116.793 4.8879L112.707 4.3598L110.881 1.07714C110.554 0.49201 109.606 0.484572 109.276 1.07714Z" fill="#E59819"/>
</svg>
