<svg width="85" height="10" viewBox="0 0 85 10" fill="none" xmlns="http://www.w3.org/2000/svg">
<path d="M5.4659 0.976223L4.16139 3.32098L1.2427 3.6982C0.719295 3.76549 0.509533 4.33752 0.889102 4.66515L3.0007 6.48924L2.50127 9.066C2.41137 9.53176 2.96474 9.88064 3.42822 9.66281L6.03925 8.44616L8.65029 9.66281C9.11376 9.87887 9.66713 9.53176 9.57724 9.066L9.0778 6.48924L11.1894 4.66515C11.569 4.33752 11.3592 3.76549 10.8358 3.6982L7.91712 3.32098L6.6126 0.976223C6.37887 0.558275 5.70164 0.552962 5.4659 0.976223Z" fill="#E59819"/>
<path d="M23.6348 0.976223L22.3303 3.32098L19.4116 3.6982C18.8882 3.76549 18.6785 4.33752 19.058 4.66515L21.1696 6.48924L20.6702 9.066C20.5803 9.53176 21.1337 9.88064 21.5972 9.66281L24.2082 8.44616L26.8192 9.66281C27.2827 9.87887 27.8361 9.53176 27.7462 9.066L27.2467 6.48924L29.3584 4.66515C29.7379 4.33752 29.5282 3.76549 29.0048 3.6982L26.0861 3.32098L24.7815 0.976223C24.5478 0.558275 23.8706 0.552962 23.6348 0.976223Z" fill="#E59819"/>
<path d="M41.8028 0.976223L40.4983 3.32098L37.5796 3.6982C37.0562 3.76549 36.8464 4.33752 37.226 4.66515L39.3376 6.48924L38.8382 9.066C38.7483 9.53176 39.3017 9.88064 39.7651 9.66281L42.3762 8.44616L44.9872 9.66281C45.4507 9.87887 46.004 9.53176 45.9142 9.066L45.4147 6.48924L47.5263 4.66515C47.9059 4.33752 47.6961 3.76549 47.1727 3.6982L44.254 3.32098L42.9495 0.976223C42.7158 0.558275 42.0386 0.552962 41.8028 0.976223Z" fill="#E59819"/>
<path d="M59.9747 0.976223L58.6702 3.32098L55.7515 3.6982C55.2281 3.76549 55.0183 4.33752 55.3979 4.66515L57.5095 6.48924L57.0101 9.066C56.9202 9.53176 57.4735 9.88064 57.937 9.66281L60.548 8.44616L63.1591 9.66281C63.6226 9.87887 64.1759 9.53176 64.086 9.066L63.5866 6.48924L65.6982 4.66515C66.0778 4.33752 65.868 3.76549 65.3446 3.6982L62.4259 3.32098L61.1214 0.976223C60.8877 0.558275 60.2104 0.552962 59.9747 0.976223Z" fill="#E59819"/>
<path d="M78.1436 0.976223L76.8391 3.32098L73.9204 3.6982C73.397 3.76549 73.1873 4.33752 73.5668 4.66515L75.6784 6.48924L75.179 9.066C75.0891 9.53176 75.6425 9.88064 76.106 9.66281L78.717 8.44616L81.328 9.66281C81.7915 9.87887 82.3449 9.53176 82.255 9.066L81.7555 6.48924L83.8671 4.66515C84.2467 4.33752 84.0369 3.76549 83.5135 3.6982L80.5949 3.32098L79.2903 0.976223C79.0566 0.558275 78.3794 0.552962 78.1436 0.976223Z" fill="#E59819"/>
</svg>
