<svg width="87" height="9" viewBox="0 0 87 9" fill="none" xmlns="http://www.w3.org/2000/svg">
<path d="M4.98218 0.294164L3.63689 2.40626L0.626994 2.74605C0.0872317 2.80666 -0.129085 3.32193 0.262346 3.61705L2.43994 5.26014L1.9249 7.58121C1.83219 8.00076 2.40285 8.31502 2.88081 8.11881L5.57344 7.02288L8.26608 8.11881C8.74403 8.31343 9.3147 8.00076 9.22199 7.58121L8.70695 5.26014L10.8845 3.61705C11.276 3.32193 11.0597 2.80666 10.5199 2.74605L7.51 2.40626L6.16471 0.294164C5.92367 -0.0823118 5.22528 -0.0870975 4.98218 0.294164Z" fill="#E59819"/>
<path d="M23.7195 0.294164L22.3742 2.40626L19.3643 2.74605C18.8245 2.80666 18.6082 3.32193 18.9997 3.61705L21.1772 5.26014L20.6622 7.58121C20.5695 8.00076 21.1402 8.31502 21.6181 8.11881L24.3107 7.02288L27.0034 8.11881C27.4813 8.31343 28.052 8.00076 27.9593 7.58121L27.4443 5.26014L29.6218 3.61705C30.0133 3.32193 29.797 2.80666 29.2572 2.74605L26.2473 2.40626L24.902 0.294164C24.661 -0.0823118 23.9626 -0.0870975 23.7195 0.294164Z" fill="#E59819"/>
<path d="M42.4558 0.294164L41.1105 2.40626L38.1006 2.74605C37.5609 2.80666 37.3445 3.32193 37.736 3.61705L39.9136 5.26014L39.3985 7.58121C39.3058 8.00076 39.8765 8.31502 40.3544 8.11881L43.0471 7.02288L45.7397 8.11881C46.2177 8.31343 46.7883 8.00076 46.6956 7.58121L46.1806 5.26014L48.3582 3.61705C48.7496 3.32193 48.5333 2.80666 47.9935 2.74605L44.9836 2.40626L43.6383 0.294164C43.3973 -0.0823118 42.6989 -0.0870975 42.4558 0.294164Z" fill="#E59819"/>
<path d="M61.1941 0.294164L59.8488 2.40626L56.8389 2.74605C56.2991 2.80666 56.0828 3.32193 56.4743 3.61705L58.6519 5.26014L58.1368 7.58121C58.0441 8.00076 58.6148 8.31502 59.0927 8.11881L61.7854 7.02288L64.478 8.11881C64.9559 8.31343 65.5266 8.00076 65.4339 7.58121L64.9189 5.26014L67.0965 3.61705C67.4879 3.32193 67.2716 2.80666 66.7318 2.74605L63.7219 2.40626L62.3766 0.294164C62.1356 -0.0823118 61.4372 -0.0870975 61.1941 0.294164Z" fill="#E59819"/>
<path d="M79.9314 0.294164L78.5861 2.40626L75.5762 2.74605C75.0365 2.80666 74.8201 3.32193 75.2116 3.61705L77.3892 5.26014L76.8741 7.58121C76.7814 8.00076 77.3521 8.31502 77.83 8.11881L80.5227 7.02288L83.2153 8.11881C83.6933 8.31343 84.2639 8.00076 84.1712 7.58121L83.6562 5.26014L85.8338 3.61705C86.2252 3.32193 86.0089 2.80666 85.4691 2.74605L82.4592 2.40626L81.1139 0.294164C80.8729 -0.0823118 80.1745 -0.0870975 79.9314 0.294164Z" fill="#E59819"/>
</svg>
